# AST/ASF file generated using VICON BodyLanguage
# -----------------------------------------------
:version 1.10
:name VICON
:units
  mass 1.0
  length 0.45
  angle deg
:documentation
   .ast/.asf automatically generated from VICON data using
   VICON BodyBuilder and BodyLanguage model FoxedUp or BRILLIANT.MOD
:root
   order TX TY TZ RX RY RZ
   axis XYZ
   position 0 0 0  
   orientation 0 0 0 
:bonedata
  begin
     id 1 
     name lhipjoint
     direction 0.547975 -0.797114 0.253638 
     length 2.36201 
     axis 0 0 0  XYZ
  end
  begin
     id 2 
     name lfemur
     direction 0.34202 -0.939693 0  
     length 7.69075  
     axis 0 0 20  XYZ
    dof rx ry rz
    limits (-160.0 20.0)
           (-70.0 70.0)
           (-60.0 70.0)
  end
  begin
     id 3 
     name ltibia
     direction 0.34202 -0.939693 0   
     length 7.91399   
     axis 0 0 20   XYZ
    dof rx
    limits (-10.0 170.0)
  end
  begin
     id 4 
     name lfoot
     direction 0.0705293 -0.193778 0.978507   
     length 2.13618   
     axis -90 7.62852e-016 20   XYZ
    dof rx rz
    limits (-45.0 90.0)
           (-70.0 20.0)
  end
  begin
     id 5 
     name ltoes
     direction 1.53592e-011 -4.21925e-011 1   
     length 1.07518   
     axis -90 7.62852e-016 20   XYZ
    dof rx
    limits (-90.0 20.0)
  end
  begin
     id 6 
     name rhipjoint
     direction -0.57 -0.782963 0.249136   
     length 2.4047  
     axis 0 0 0  XYZ 
  end
  begin
     id 7 
     name rfemur
     direction -0.34202 -0.939693 0   
     length 7.51486   
     axis 0 0 -20   XYZ
    dof rx ry rz
    limits (-160.0 20.0)
           (-70.0 70.0)
           (-70.0 60.0)
  end
  begin
     id 8 
     name rtibia
     direction -0.34202 -0.939693 0   
     length 8.08317   
     axis 0 0 -20   XYZ
    dof rx
    limits (-10.0 170.0)
 end
 begin
     id 9 
     name rfoot
     direction -0.104954 -0.281256 0.953876   
     length 2.30343  
     axis -90 -7.62852e-016 -20   XYZ
    dof rx rz
    limits (-45.0 90.0)
           (-20.0 70.0)
  end
  begin
     id 10 
     name rtoes
     direction -1.53556e-011 -4.21922e-011 1   
     length 1.14803   
     axis -90 -7.62852e-016 -20   XYZ
    dof rx
    limits (-90.0 20.0)
  end
  begin
     id 11 
     name lowerback
     direction -0.0152855 0.99353 -0.11254   
     length 2.05311   
     axis 0 0 0   XYZ
    dof rx ry rz
    limits (-20.0 45.0)
           (-30.0 30.0)
           (-30.0 30.0)
  end
  begin
     id 12 
     name upperback
     direction -0.00157509 0.999443 -0.033332   
     length 2.06353   
     axis 0 0 0   XYZ
    dof rx ry rz
    limits (-20.0 45.0)
           (-30.0 30.0)
           (-30.0 30.0)
  end
  begin
     id 13 
     name thorax
     direction 0.00577788 0.999804 0.0189484   
     length 2.08472   
     axis 0 0 0   XYZ
    dof rx ry rz
    limits (-20.0 45.0)
           (-30.0 30.0)
           (-30.0 30.0)
  end
  begin
     id 14 
     name lowerneck
     direction -1.09301e-005 0.994719 0.10264   
     length 1.76249   
     axis 0 0 0   XYZ
    dof rx ry rz
    limits (-20.0 45.0)
           (-30.0 30.0)
           (-30.0 30.0)
  end
  begin
     id 15 
     name upperneck
     direction 0.0495018 0.988526 -0.142706   
     length 1.77897   
     axis 0 0 0   XYZ
    dof rx ry rz
    limits (-20.0 45.0)
           (-30.0 30.0)
           (-30.0 30.0)
  end
  begin
     id 16
     name head
     direction 0.0142736 0.998114 -0.0597101  
     length 1.78934  
     axis 0 0 0   XYZ
    dof rx ry rz
    limits (-20.0 45.0)
           (-30.0 30.0)
           (-30.0 30.0)
  end
  begin
     id 17 
     name lclavicle
     direction 0.918111 0.396107 -0.0130883  
     length 3.37276  
     axis 0 0 0   XYZ
    dof ry rz
    limits (-20.0 10.0)
           (0.0 20.0)
  end
  begin
     id 18 
     name lhumerus
     direction 1 -4.48975e-011 -3.26108e-027   
     length 5.34298   
     axis 180 -30 -90   XYZ
    dof rx ry rz
    limits (-60.0 90.0)
           (-90.0 90.0)
           (-90.0 90.0)
  end
  begin
     id 19
     name lradius
     direction 1 -4.48964e-011 -8.84413e-028   
     length 3.67262   
     axis 180 -30 -90   XYZ
    dof rx
    limits (-10.0 170.0)
  end
  begin
     id 20
     name lwrist
     direction 1 -4.48991e-011 -1.24264e-027   
     length 1.83631   
     axis -2.17013e-015 90 90   XYZ
    dof ry
    limits (-180.0 0.0)
 end
  begin
     id 21 
     name lhand
     direction 1 -4.48855e-011 -2.48528e-027   
     length 0.599298   
     axis 1.58582e-015 90 90   XYZ
    dof rx rz
    limits (-90.0 90.0)
           (-45.0 45.0)
  end
  begin
     id 22 
     name lfingers
     direction 1 -4.48811e-011 -4.97056e-027   
     length 0.48317   
     axis 3.17164e-015 90 90   XYZ
    dof rx
    limits (0.0 90.0)
  end
  begin
     id 23
     name lthumb
     direction 0.707107 -6.34882e-011 0.707107   
     length 0.693738   
     axis -90 45 2.85299e-015   XYZ
    dof rx rz
    limits (-45.0 45.0)
           (-45.0 45.0)
  end
  begin
     id 24 
     name rclavicle
     direction -0.920511 0.384752 -0.0680135   
     length 3.43787  
     axis 0 0 0   XYZ 
    dof ry rz
    limits (-10.0 20.0)
           (-20.0 0.0)
  end
  begin
     id 25 
     name rhumerus
     direction -0.999976 -0.00330524 0.00603274  
     length 5.5498   
     axis 180 30 90   XYZ
    dof rx ry rz
    limits (-90.0 60.0)
           (-90.0 90.0)
           (-90.0 90.0)
  end
  begin
     id 26 
     name rradius
     direction -1 -4.48967e-011 8.62438e-027   
     length 3.69401   
     axis 180 30 90   XYZ
    dof rx
    limits (-10.0 170.0)
  end
  begin
     id 27 
     name rwrist
     direction -1 -4.4897e-011 9.54866e-027   
     length 1.84701   
     axis -7.69462e-015 -90 -90   XYZ
    dof ry
    limits (-180.0 0.0)
  end
  begin
     id 28
     name rhand
     direction -1 -4.48982e-011 1.90973e-026   
     length 0.638113   
     axis -1.21857e-014 -90 -90   XYZ
    dof rx rz
    limits (-90.0 90.0)
           (-45.0 45.0)
  end
  begin
     id 29
     name rfingers
     direction -1 -4.48936e-011 3.81946e-026   
     length 0.514463   
     axis -2.43714e-014 -90 -90   XYZ
    dof rx
    limits (0.0 90.0)
  end
  begin
     id 30
     name rthumb
     direction -0.707107 -6.34942e-011 0.707107   
     length 0.738669   
     axis -90 -45 -2.85299e-015   XYZ
    dof rx rz
    limits (-45.0 45.0)
           (-45.0 45.0)
  end
:hierarchy
  begin
    root lhipjoint rhipjoint lowerback
    lhipjoint lfemur
    lfemur ltibia
    ltibia lfoot
    lfoot ltoes
    rhipjoint rfemur
    rfemur rtibia
    rtibia rfoot
    rfoot rtoes
    lowerback upperback
    upperback thorax
    thorax lowerneck lclavicle rclavicle
    lowerneck upperneck
    upperneck head
    lclavicle lhumerus
    lhumerus lradius
    lradius lwrist
    lwrist lhand lthumb
    lhand lfingers
    rclavicle rhumerus
    rhumerus rradius
    rradius rwrist
    rwrist rhand rthumb
    rhand rfingers
  end

#!OML:ASF F:\twosubjects\two\Thursday\Session 1\Rory.ASF
:FULLY-SPECIFIED
:DEGREES
130
root 22.6284 18.0775 1.44701 6.61887 -63.2686 1.09648
lowerback 15.6045 0.0707072 -3.81227
upperback 7.3903 -0.826364 -3.35128
thorax -0.908448 -0.572258 -1.22631
lowerneck -11.7491 3.36488 1.39969
upperneck 6.71273 3.97538 3.00226
head 4.31124 2.1526 1.06019
rclavicle 3.65764e-014 -1.11319e-014
rhumerus -37.9717 -1.52992 -79.8854
rradius 121.439
rwrist -7.6084
rhand -26.3643 34.3216
rfingers 7.12502
rthumb 0.193847 4.34199
lclavicle 3.65764e-014 -1.11319e-014
lhumerus 4.91693 -13.6468 76.9587
lradius 91.6572
lwrist -41.6374
lhand -21.5402 36.7698
lfingers 7.12502
lthumb 4.85277 66.6942
rfemur -24.4365 2.94132 20.6109
rtibia 39.8035
rfoot -18.4931 -17.5075
rtoes -2.94972
lfemur -35.5678 13.448 -15.9802
ltibia 47.3226
lfoot -13.0128 -0.974634
ltoes -11.3522
131
root 22.6755 18.0678 1.41893 6.91769 -63.1488 0.889284
lowerback 16.1165 0.135146 -4.15272
upperback 7.27954 -0.804433 -2.82795
thorax -1.28219 -0.568072 -0.484733
lowerneck -11.3896 3.32795 0.984367
upperneck 6.65167 4.00273 3.01072
head 4.20619 2.15309 1.12794
rclavicle 2.3059e-014 2.3059e-014
rhumerus -38.3841 -1.50624 -79.0451
rradius 120.834
rwrist -7.92981
rhand -26.0333 34.3027
rfingers 7.12502
rthumb 0.513617 4.32359
lclavicle 2.3059e-014 2.3059e-014
lhumerus 5.36229 -13.7022 77.5704
lradius 91.5504
lwrist -41.5572
lhand -21.7478 35.4134
lfingers 7.12502
lthumb 4.65231 65.3423
rfemur -24.876 2.92921 20.7259
rtibia 40.028
rfoot -17.9148 -17.7531
rtoes -5.16759
lfemur -36.0259 12.6856 -15.4761
ltibia 47.7734
lfoot -12.3825 -2.54784
ltoes -8.81031
132
root 22.7204 18.0646 1.39036 6.9787 -62.9945 0.870594
lowerback 16.007 -0.0657726 -3.24691
upperback 7.63027 -0.947793 -3.27477
thorax -0.87516 -0.626643 -1.44415
lowerneck -11.3347 3.38539 1.11529
upperneck 6.43281 4.01817 3.48494
head 4.1098 2.18437 1.25903
rclavicle -7.63333e-014 4.21423e-014
rhumerus -38.2645 -2.20272 -79.583
rradius 119.858
rwrist -8.04119
rhand -26.7845 34.391
rfingers 7.12502
rthumb -0.211931 4.41132
lclavicle -7.63333e-014 4.21423e-014
lhumerus 6.57517 -14.2005 76.72
lradius 91.2575
lwrist -41.7065
lhand -22.0665 34.6077
lfingers 7.12502
lthumb 4.3446 64.5432
rfemur -25.1694 3.12534 20.744
rtibia 40.1614
rfoot -17.6037 -18.1724
rtoes -5.83237
lfemur -36.3616 12.0396 -15.0905
ltibia 48.1147
lfoot -11.7089 -4.32932
ltoes -5.23389
133
root 22.7647 18.0603 1.37607 7.04765 -63.0667 0.768089
lowerback 16.3 -0.0209798 -2.98822
upperback 7.72296 -0.865558 -3.12844
thorax -0.932726 -0.584054 -1.44858
lowerneck -11.327 3.25769 0.869729
upperneck 6.46705 3.89465 3.39444
head 4.11886 2.11333 1.26419
rclavicle -6.52014e-014 -6.36111e-015
rhumerus -38.5564 -2.51143 -79.0889
rradius 118.913
rwrist -8.37128
rhand -27.7711 33.75
rfingers 7.12502
rthumb -1.16486 3.77347
lclavicle -6.52014e-014 -6.36111e-015
lhumerus 7.37875 -14.5451 76.8886
lradius 90.8295
lwrist -42.1488
lhand -22.3055 34.3845
lfingers 7.12502
lthumb 4.11378 64.3245
rfemur -25.3392 3.49422 20.7428
rtibia 40.2432
rfoot -17.8023 -18.1898
rtoes -3.24116
lfemur -36.4242 11.429 -14.6852
ltibia 48.3084
lfoot -11.6694 -5.83671
ltoes -6.42979
134
root 22.8109 18.0626 1.3676 7.07522 -63.413 0.860137
lowerback 16.7587 0.192515 -3.64879
upperback 7.57418 -0.686173 -2.45359
thorax -1.31238 -0.513302 -0.393516
lowerneck -11.2314 3.13348 0.350894
upperneck 6.66187 3.85767 2.88921
head 4.16857 2.05836 1.18554
rclavicle 2.62396e-014 3.97569e-015
rhumerus -38.9607 -2.49807 -77.875
rradius 118.049
rwrist -9.4175
rhand -27.5264 32.8003
rfingers 7.12502
rthumb -0.928468 2.82254
lclavicle 2.62396e-014 3.97569e-015
lhumerus 7.81029 -14.2576 77.951
lradius 90.4003
lwrist -42.8411
lhand -22.3955 33.8275
lfingers 7.12502
lthumb 4.02686 63.7692
rfemur -25.6898 3.69956 20.617
rtibia 40.3102
rfoot -17.8946 -17.7987
rtoes -1.05066
lfemur -36.4492 10.7991 -14.4009
ltibia 48.3308
lfoot -11.8227 -7.0074
ltoes -10.2997
135
root 22.8511 18.0697 1.35095 7.0782 -63.6966 1.02748
lowerback 16.83 0.14855 -3.70784
upperback 7.62567 -0.757466 -2.41478
thorax -1.2921 -0.553047 -0.307031
lowerneck -11.121 3.24773 0.298156
upperneck 6.66591 4.02643 2.82452
head 4.14503 2.13646 1.18196
rclavicle 1.82882e-014 3.97569e-015
rhumerus -39.005 -2.60498 -77.7231
rradius 117.037
rwrist -10.5653
rhand -27.326 32.364
rfingers 7.12502
rthumb -0.734904 2.38556
lclavicle 1.82882e-014 3.97569e-015
lhumerus 8.41876 -14.4801 77.7088
lradius 90.1088
lwrist -42.9839
lhand -22.4868 34.9051
lfingers 7.12502
lthumb 3.93872 64.8485
rfemur -26.0901 3.62898 20.5049
rtibia 40.3225
rfoot -17.7187 -17.5618
rtoes -1.81591
lfemur -36.4841 10.0613 -14.1734
ltibia 48.2006
lfoot -11.832 -7.85782
ltoes -14.2346
136
root 22.8859 18.0721 1.34066 6.73897 -63.7337 1.44553
lowerback 16.8851 0.0527253 -3.77452
upperback 7.79647 -0.900206 -2.46184
thorax -1.13577 -0.632243 -0.295432
lowerneck -10.8973 3.43503 0.352314
upperneck 6.39135 4.27716 2.82478
head 3.99865 2.25897 1.17699
rclavicle 4.73108e-014 -3.10104e-014
rhumerus -38.9301 -2.29852 -77.6628
rradius 115.782
rwrist -11.2314
rhand -27.7509 31.3448
rfingers 7.12502
rthumb -1.14536 1.36808
lclavicle 4.73108e-014 -3.10104e-014
lhumerus 9.04863 -14.6866 77.3587
lradius 89.7718
lwrist -42.7947
lhand -22.5751 34.562
lfingers 7.12502
lthumb 3.85346 64.5069
rfemur -26.3294 3.52117 20.268
rtibia 40.3752
rfoot -17.7818 -17.4111
rtoes -2.10552
lfemur -36.3782 9.0681 -14.0598
ltibia 48.0162
lfoot -12.1092 -8.98862
ltoes -17.6384
137
root 22.9049 18.0828 1.32233 6.25212 -64.5179 1.68551
lowerback 17.0984 0.346885 -4.30037
upperback 8.06197 -0.61887 -2.41663
thorax -0.960868 -0.520737 -0.00217637
lowerneck -10.6702 3.56618 0.475823
upperneck 6.08106 4.45357 2.71651
head 3.8452 2.34118 1.11704
rclavicle 2.18663e-014 -4.69132e-014
rhumerus -38.8923 -3.42761 -78.0416
rradius 114.178
rwrist -10.8054
rhand -27.7807 30.6461
rfingers 7.12502
rthumb -1.1741 0.669545
lclavicle 2.18663e-014 -4.69132e-014
lhumerus 9.69569 -14.8669 77.2887
lradius 89.4028
lwrist -42.6017
lhand -22.8221 34.6697
lfingers 7.12502
lthumb 3.61486 64.6188
rfemur -26.1377 4.30968 20.1065
rtibia 40.3599
rfoot -17.9042 -17.2473
rtoes -1.13487
lfemur -35.5848 8.74654 -13.7842
ltibia 47.7987
lfoot -12.5431 -10.5379
ltoes -18.5946
138
root 22.9539 18.0828 1.34811 6.07915 -64.2706 2.2362
lowerback 16.8878 0.0460145 -3.8488
upperback 8.10327 -0.929215 -2.51079
thorax -0.809308 -0.662917 -0.303616
lowerneck -10.4008 3.66116 0.695308
upperneck 5.95266 4.57559 2.48879
head 3.7552 2.39422 1.00009
rclavicle 9.54166e-015 -1.90833e-014
rhumerus -39.097 -3.59209 -77.9952
rradius 112.852
rwrist -11.1986
rhand -29.1177 29.7431
rfingers 7.12502
rthumb -2.46538 -0.222392
lclavicle 9.54166e-015 -1.90833e-014
lhumerus 10.128 -15.2262 77.3209
lradius 89.0291
lwrist -42.6061
lhand -23.103 35.1721
lfingers 7.12502
lthumb 3.34366 65.1256
rfemur -26.6657 4.06261 19.6769
rtibia 40.4721
rfoot -18.1055 -17.0631
rtoes 0.761106
lfemur -35.8344 7.7397 -13.9856
ltibia 47.665
lfoot -12.133 -12.1497
ltoes -14.7255
139
root 22.9775 18.0893 1.34096 6.40654 -65.1334 1.86888
lowerback 17.0215 0.322775 -3.90735
upperback 8.08762 -0.589868 -2.44728
thorax -0.901151 -0.498136 -0.261048
lowerneck -10.2221 3.73388 1.08392
upperneck 6.08883 4.64811 2.14688
head 3.78575 2.42366 0.821334
rclavicle 8.54774e-014 -2.62396e-014
rhumerus -39.2188 -3.61661 -77.6968
rradius 111.638
rwrist -12.9425
rhand -29.9037 28.7884
rfingers 7.12502
rthumb -3.22445 -1.16699
lclavicle 8.54774e-014 -2.62396e-014
lhumerus 10.3844 -15.7882 77.2994
lradius 88.7181
lwrist -42.1628
lhand -23.4038 35.2041
lfingers 7.12502
lthumb 3.05313 65.162
rfemur -26.8299 4.956 19.7537
rtibia 40.5273
rfoot -17.825 -17.1867
rtoes 0.127704
lfemur -35.3858 8.06449 -13.712
ltibia 47.4712
lfoot -12.0829 -13.7309
ltoes -11.5075
140
root 23.0672 18.083 1.41965 7.48129 -63.1616 2.14752
lowerback 16.0759 -0.848321 -1.8964
upperback 7.81674 -1.75447 -2.60329
thorax -0.737957 -1.00538 -1.36952
lowerneck -9.99027 3.83015 1.35102
upperneck 6.05942 4.77409 1.81372
head 3.74453 2.47627 0.66568
rclavicle -3.57812e-015 -3.89618e-014
rhumerus -39.2149 -3.97593 -77.4549
rradius 110.221
rwrist -14.4565
rhand -28.8095 28.2604
rfingers 7.12502
rthumb -2.16777 -1.70831
lclavicle -3.57812e-015 -3.89618e-014
lhumerus 10.6401 -16.0873 77.4594
lradius 88.3996
lwrist -41.791
lhand -23.5987 35.2276
lfingers 7.12502
lthumb 2.86492 65.1881
rfemur -28.5074 2.99556 19.3612
rtibia 40.6673
rfoot -17.3386 -17.2941
rtoes -1.9144
lfemur -37.1153 4.39573 -13.7942
ltibia 47.2088
lfoot -12.1555 -13.6593
ltoes -12.384
141
root 23.1048 18.0924 1.44388 6.9785 -62.9004 3.02221
lowerback 15.9383 -1.19208 -1.87596
upperback 7.78665 -2.19373 -2.66158
thorax -0.705541 -1.2204 -1.37332
lowerneck -9.45429 4.05209 1.32839
upperneck 5.68354 5.09991 1.70875
head 3.50758 2.62884 0.632964
rclavicle -4.29375e-014 3.49861e-014
rhumerus -39.217 -4.22268 -77.4352
rradius 108.618
rwrist -14.8093
rhand -27.8107 27.4898
rfingers 7.12502
rthumb -1.20307 -2.48659
lclavicle -4.29375e-014 3.49861e-014
lhumerus 10.7764 -16.0273 77.6405
lradius 87.9927
lwrist -42.0609
lhand -23.6218 35.4586
lfingers 7.12502
lthumb 2.84263 65.4194
rfemur -28.8516 3.3579 18.6952
rtibia 40.6063
rfoot -17.2537 -17.9115
rtoes -1.50131
lfemur -36.9676 2.55725 -13.9668
ltibia 46.6839
lfoot -11.9864 -14.2017
ltoes -9.45501
142
root 23.1252 18.1067 1.45507 5.81124 -63.4708 4.19327
lowerback 16.123 -1.21953 -2.61776
upperback 7.82893 -2.34962 -2.72367
thorax -0.73141 -1.31917 -0.992129
lowerneck -9.19542 4.33752 1.41767
upperneck 5.62222 5.49176 1.51608
head 3.44289 2.81575 0.569129
rclavicle 1.63003e-014 -1.74931e-014
rhumerus -39.1645 -4.29745 -77.5844
rradius 106.87
rwrist -14.6085
rhand -28.2903 26.7261
rfingers 7.12502
rthumb -1.6663 -3.24719
lclavicle 1.63003e-014 -1.74931e-014
lhumerus 10.7493 -15.9307 77.5597
lradius 87.6497
lwrist -42.2019
lhand -23.4863 36.2776
lfingers 7.12502
lthumb 2.97347 66.2366
rfemur -28.7505 3.92519 17.9546
rtibia 40.4465
rfoot -17.0674 -17.978
rtoes -0.538741
lfemur -36.0554 1.98631 -14.4279
ltibia 45.9553
lfoot -11.5453 -15.1609
ltoes -2.77889
143
root 23.1367 18.1311 1.46287 5.09997 -64.6597 4.57196
lowerback 16.3914 -0.911806 -3.17088
upperback 7.97666 -2.05197 -2.71325
thorax -0.693776 -1.19458 -0.71557
lowerneck -9.15682 4.51179 1.72744
upperneck 5.6727 5.7213 1.07693
head 3.47749 2.91806 0.38615
rclavicle -5.1684e-015 2.54444e-014
rhumerus -39.0319 -4.38588 -77.715
rradius 105.043
rwrist -14.4246
rhand -29.2191 26.7717
rfingers 7.12502
rthumb -2.5633 -3.1926
lclavicle -5.1684e-015 2.54444e-014
lhumerus 10.8992 -15.9315 77.5236
lradius 87.384
lwrist -41.5836
lhand -22.9948 35.9704
lfingers 7.12502
lthumb 3.44814 65.9223
rfemur -28.3311 4.31325 17.7377
rtibia 40.1003
rfoot -16.6856 -17.3356
rtoes -0.407018
lfemur -34.605 2.13924 -14.5652
ltibia 44.9732
lfoot -11.4153 -15.5009
ltoes 1.70734
144
root 23.1454 18.1533 1.46931 4.67625 -66.091 4.69733
lowerback 16.5263 -0.469335 -3.65208
upperback 8.11969 -1.56435 -2.6982
thorax -0.601128 -0.975597 -0.50978
lowerneck -8.99784 4.63679 2.00261
upperneck 5.59382 5.88621 0.732243
head 3.44111 2.99101 0.23037
rclavicle 2.78299e-015 -3.97569e-015
rhumerus -38.8581 -4.34208 -77.7316
rradius 103.464
rwrist -14.5975
rhand -30.6999 25.7561
rfingers 7.12502
rthumb -3.99332 -4.18624
lclavicle 2.78299e-015 -3.97569e-015
lhumerus 11.1783 -15.8277 77.7619
lradius 87.0742
lwrist -40.8523
lhand -22.6318 34.4682
lfingers 7.12502
lthumb 3.79867 64.4141
rfemur -27.9749 5.002 17.6472
rtibia 39.7003
rfoot -16.1284 -16.7489
rtoes -1.03917
lfemur -33.1905 2.7195 -14.6497
ltibia 43.8225
lfoot -11.9542 -15.0544
ltoes 2.79326
